  0
SECTION
  2
HEADER
  9
$ACADVER
  1
AC1014
  9
$ACADMAINTVER
 70
     9
  9
$DWGCODEPAGE
  3
ANSI_1252
  9
$INSBASE
 10
0.0
 20
0.0
 30
0.0
  9
$EXTMIN
 10
1.000000000000000E+20
 20
1.000000000000000E+20
 30
1.000000000000000E+20
  9
$EXTMAX
 10
-1.000000000000000E+20
 20
-1.000000000000000E+20
 30
-1.000000000000000E+20
  9
$LIMMIN
 10
0.0
 20
0.0
  9
$LIMMAX
 10
420.0
 20
297.0
  9
$ORTHOMODE
 70
     0
  9
$REGENMODE
 70
     1
  9
$FILLMODE
 70
     1
  9
$QTEXTMODE
 70
     0
  9
$MIRRTEXT
 70
     1
  9
$DRAGMODE
 70
     2
  9
$LTSCALE
 40
1.0
  9
$OSMODE
 70
    37
  9
$ATTMODE
 70
     1
  9
$TEXTSIZE
 40
2.5
  9
$TRACEWID
 40
1.0
  9
$TEXTSTYLE
  7
STANDARD
  9
$CLAYER
  8
0
  9
$CELTYPE
  6
BYLAYER
  9
$CECOLOR
 62
   256
  9
$CELTSCALE
 40
1.0
  9
$DELOBJ
 70
     1
  9
$DISPSILH
 70
     0
  9
$DIMSCALE
 40
1.0
  9
$DIMASZ
 40
3.0
  9
$DIMEXO
 40
0.625
  9
$DIMDLI
 40
3.75
  9
$DIMRND
 40
0.0
  9
$DIMDLE
 40
0.0
  9
$DIMEXE
 40
1.25
  9
$DIMTP
 40
0.0
  9
$DIMTM
 40
0.0
  9
$DIMTXT
 40
1.22550817624347
  9
$DIMCEN
 40
2.5
  9
$DIMTSZ
 40
0.0
  9
$DIMTOL
 70
     0
  9
$DIMLIM
 70
     0
  9
$DIMTIH
 70
     0
  9
$DIMTOH
 70
     0
  9
$DIMSE1
 70
     0
  9
$DIMSE2
 70
     0
  9
$DIMTAD
 70
     1
  9
$DIMZIN
 70
     8
  9
$DIMBLK
  1

  9
$DIMASO
 70
     1
  9
$DIMSHO
 70
     1
  9
$DIMPOST
  1

  9
$DIMAPOST
  1

  9
$DIMALT
 70
     0
  9
$DIMALTD
 70
     3
  9
$DIMALTF
 40
0.03937007874016
  9
$DIMLFAC
 40
1.0
  9
$DIMTOFL
 70
     1
  9
$DIMTVP
 40
0.0
  9
$DIMTIX
 70
     0
  9
$DIMSOXD
 70
     0
  9
$DIMSAH
 70
     0
  9
$DIMBLK1
  1

  9
$DIMBLK2
  1

  9
$DIMSTYLE
  2
ISO-25
  9
$DIMCLRD
 70
     0
  9
$DIMCLRE
 70
     0
  9
$DIMCLRT
 70
     0
  9
$DIMTFAC
 40
1.0
  9
$DIMGAP
 40
0.625
  9
$DIMJUST
 70
     0
  9
$DIMSD1
 70
     0
  9
$DIMSD2
 70
     0
  9
$DIMTOLJ
 70
     0
  9
$DIMTZIN
 70
     8
  9
$DIMALTZ
 70
     0
  9
$DIMALTTZ
 70
     0
  9
$DIMFIT
 70
     3
  9
$DIMUPT
 70
     0
  9
$DIMUNIT
 70
     2
  9
$DIMDEC
 70
     2
  9
$DIMTDEC
 70
     2
  9
$DIMALTU
 70
     2
  9
$DIMALTTD
 70
     3
  9
$DIMTXSTY
  7
STANDARD
  9
$DIMAUNIT
 70
     0
  9
$LUNITS
 70
     2
  9
$LUPREC
 70
     4
  9
$SKETCHINC
 40
1.0
  9
$FILLETRAD
 40
10.0
  9
$AUNITS
 70
     0
  9
$AUPREC
 70
     0
  9
$MENU
  1
.
  9
$ELEVATION
 40
0.0
  9
$PELEVATION
 40
0.0
  9
$THICKNESS
 40
0.0
  9
$LIMCHECK
 70
     0
  9
$CHAMFERA
 40
10.0
  9
$CHAMFERB
 40
10.0
  9
$CHAMFERC
 40
20.0
  9
$CHAMFERD
 40
0.0
  9
$SKPOLY
 70
     0
  9
$TDCREATE
 40
2458566.641907037
  9
$TDUPDATE
 40
2458566.641908576
  9
$TDINDWG
 40
0.0000000116
  9
$TDUSRTIMER
 40
0.0000000116
  9
$USRTIMER
 70
     1
  9
$ANGBASE
 50
0.0
  9
$ANGDIR
 70
     0
  9
$PDMODE
 70
     0
  9
$PDSIZE
 40
0.0
  9
$PLINEWID
 40
0.0
  9
$COORDS
 70
     1
  9
$SPLFRAME
 70
     0
  9
$SPLINETYPE
 70
     6
  9
$SPLINESEGS
 70
     8
  9
$ATTDIA
 70
     0
  9
$ATTREQ
 70
     1
  9
$HANDLING
 70
     1
  9
$HANDSEED
  5
EF
  9
$SURFTAB1
 70
     6
  9
$SURFTAB2
 70
     6
  9
$SURFTYPE
 70
     6
  9
$SURFU
 70
     6
  9
$SURFV
 70
     6
  9
$UCSNAME
  2

  9
$UCSORG
 10
0.0
 20
0.0
 30
0.0
  9
$UCSXDIR
 10
1.0
 20
0.0
 30
0.0
  9
$UCSYDIR
 10
0.0
 20
1.0
 30
0.0
  9
$PUCSNAME
  2

  9
$PUCSORG
 10
0.0
 20
0.0
 30
0.0
  9
$PUCSXDIR
 10
1.0
 20
0.0
 30
0.0
  9
$PUCSYDIR
 10
0.0
 20
1.0
 30
0.0
  9
$USERI1
 70
     0
  9
$USERI2
 70
     0
  9
$USERI3
 70
     0
  9
$USERI4
 70
     0
  9
$USERI5
 70
     0
  9
$USERR1
 40
0.0
  9
$USERR2
 40
0.0
  9
$USERR3
 40
0.0
  9
$USERR4
 40
0.0
  9
$USERR5
 40
0.0
  9
$WORLDVIEW
 70
     1
  9
$SHADEDGE
 70
     3
  9
$SHADEDIF
 70
    70
  9
$TILEMODE
 70
     1
  9
$MAXACTVP
 70
    64
  9
$PINSBASE
 10
0.0
 20
0.0
 30
0.0
  9
$PLIMCHECK
 70
     0
  9
$PEXTMIN
 10
1.000000000000000E+20
 20
1.000000000000000E+20
 30
1.000000000000000E+20
  9
$PEXTMAX
 10
-1.000000000000000E+20
 20
-1.000000000000000E+20
 30
-1.000000000000000E+20
  9
$PLIMMIN
 10
0.0
 20
0.0
  9
$PLIMMAX
 10
420.0
 20
297.0
  9
$UNITMODE
 70
     0
  9
$VISRETAIN
 70
     1
  9
$PLINEGEN
 70
     0
  9
$PSLTSCALE
 70
     1
  9
$TREEDEPTH
 70
  3020
  9
$PICKSTYLE
 70
     1
  9
$CMLSTYLE
  2
STANDARD
  9
$CMLJUST
 70
     0
  9
$CMLSCALE
 40
20.0
  9
$PROXYGRAPHICS
 70
     1
  9
$MEASUREMENT
 70
     1
  0
ENDSEC
  0
SECTION
  2
CLASSES
  0
CLASS
  1
ACDBDICTIONARYWDFLT
  2
AcDbDictionaryWithDefault
  3
ObjectDBX Classes
 90
        0
280
     0
281
     0
  0
CLASS
  1
VISUALSTYLE
  2
AcDbVisualStyle
  3
ObjectDBX Classes
 90
     4095
280
     0
281
     0
  0
CLASS
  1
MATERIAL
  2
AcDbMaterial
  3
ObjectDBX Classes
 90
     1153
280
     0
281
     0
  0
CLASS
  1
DICTIONARYVAR
  2
AcDbDictionaryVar
  3
ObjectDBX Classes
 90
        0
280
     0
281
     0
  0
CLASS
  1
XRECORD
  2
AcDbXrecord
  3
AutoCAD 2000
 90
        0
280
     0
281
     0
  0
CLASS
  1
LWPOLYLINE
  2
AcDbPolyline
  3
AutoCAD 2000
 90
        0
280
     0
281
     1
  0
CLASS
  1
HATCH
  2
AcDbHatch
  3
AutoCAD 2000
 90
        0
280
     0
281
     1
  0
CLASS
  1
ACDBPLACEHOLDER
  2
AcDbPlaceHolder
  3
ObjectDBX Classes
 90
        0
280
     0
281
     0
  0
CLASS
  1
LAYOUT
  2
AcDbLayout
  3
ObjectDBX Classes
 90
        0
280
     0
281
     0
  0
ENDSEC
  0
SECTION
  2
TABLES
  0
TABLE
  2
VPORT
  5
8
330
0
100
AcDbSymbolTable
 70
     1
  0
VPORT
  5
29
330
8
100
AcDbSymbolTableRecord
100
AcDbViewportTableRecord
  2
*ACTIVE
 70
     0
 10
0.0
 20
0.0
 11
1.0
 21
1.0
 12
344.1869158878504
 22
148.5
 13
0.0
 23
0.0
 14
10.0
 24
10.0
 15
10.0
 25
10.0
 16
0.0
 26
0.0
 36
1.0
 17
0.0
 27
0.0
 37
0.0
 40
297.0
 41
1.972972972850329
 42
50.0
 43
0.0
 44
0.0
 50
0.0
 51
0.0
 71
     0
 72
   100
 73
     1
 74
     3
 75
     0
 76
     0
 77
     0
 78
     0
  0
ENDTAB
  0
TABLE
  2
LTYPE
  5
5
330
0
100
AcDbSymbolTable
 70
     1
  0
LTYPE
  5
14
330
5
100
AcDbSymbolTableRecord
100
AcDbLinetypeTableRecord
  2
BYBLOCK
 70
     0
  3

 72
    65
 73
     0
 40
0.0
  0
LTYPE
  5
15
330
5
100
AcDbSymbolTableRecord
100
AcDbLinetypeTableRecord
  2
BYLAYER
 70
     0
  3

 72
    65
 73
     0
 40
0.0
  0
LTYPE
  5
16
330
5
100
AcDbSymbolTableRecord
100
AcDbLinetypeTableRecord
  2
CONTINUOUS
 70
     0
  3
Solid line
 72
    65
 73
     0
 40
0.0
  0
ENDTAB
  0
TABLE
  2
LAYER
  5
2
330
0
100
AcDbSymbolTable
 70
     2
  0
LAYER
  5
10
330
2
100
AcDbSymbolTableRecord
100
AcDbLayerTableRecord
  2
0
 70
     0
 62
     7
  6
CONTINUOUS
  0
LAYER
  5
3F
330
2
100
AcDbSymbolTableRecord
100
AcDbLayerTableRecord
  2
APPARENT
 70
     0
 62
     7
  6
CONTINUOUS
  0
ENDTAB
  0
TABLE
  2
STYLE
  5
3
330
0
100
AcDbSymbolTable
 70
     1
  0
STYLE
  5
11
330
3
100
AcDbSymbolTableRecord
100
AcDbTextStyleTableRecord
  2
STANDARD
 70
     0
 40
0.0
 41
1.0
 50
0.0
 71
     0
 42
2.5
  3
txt
  4

  0
ENDTAB
  0
TABLE
  2
VIEW
  5
6
330
0
100
AcDbSymbolTable
 70
     0
  0
ENDTAB
  0
TABLE
  2
UCS
  5
7
330
0
100
AcDbSymbolTable
 70
     0
  0
ENDTAB
  0
TABLE
  2
APPID
  5
9
330
0
100
AcDbSymbolTable
 70
     1
  0
APPID
  5
12
330
9
100
AcDbSymbolTableRecord
100
AcDbRegAppTableRecord
  2
ACAD
 70
     0
  0
ENDTAB
  0
TABLE
  2
DIMSTYLE
  5
A
330
0
100
AcDbSymbolTable
 70
     1
  0
DIMSTYLE
105
27
330
A
100
AcDbSymbolTableRecord
100
AcDbDimStyleTableRecord
  2
ISO-25
 70
     0
  3

  4

  5

  6

  7

 40
1.0
 41
2.5
 42
0.625
 43
3.75
 44
1.25
 45
0.0
 46
0.0
 47
0.0
 48
0.0
140
2.5
141
2.5
142
0.0
143
0.03937007874016
144
1.0
145
0.0
146
1.0
147
0.625
 71
     0
 72
     0
 73
     0
 74
     0
 75
     0
 76
     0
 77
     1
 78
     8
170
     0
171
     3
172
     1
173
     0
174
     0
175
     0
176
     0
177
     0
178
     0
270
     2
271
     2
272
     2
273
     2
274
     3
340
11
275
     0
280
     0
281
     0
282
     0
283
     0
284
     8
285
     0
286
     0
287
     3
288
     0
  0
ENDTAB
  0
TABLE
  2
BLOCK_RECORD
  5
1
330
0
100
AcDbSymbolTable
 70
     1
  0
BLOCK_RECORD
  5
1F
330
1
100
AcDbSymbolTableRecord
100
AcDbBlockTableRecord
  2
*MODEL_SPACE
  0
BLOCK_RECORD
  5
1B
330
1
100
AcDbSymbolTableRecord
100
AcDbBlockTableRecord
  2
*PAPER_SPACE
  0
ENDTAB
  0
ENDSEC
  0
SECTION
  2
BLOCKS
  0
BLOCK
  5
20
330
1F
100
AcDbEntity
  8
0
100
AcDbBlockBegin
  2
*MODEL_SPACE
 70
     0
 10
0.0
 20
0.0
 30
0.0
  3
*MODEL_SPACE
  1

  0
ENDBLK
  5
21
330
1F
100
AcDbEntity
  8
0
100
AcDbBlockEnd
  0
BLOCK
  5
1C
330
1B
100
AcDbEntity
 67
     1
  8
0
100
AcDbBlockBegin
  2
*PAPER_SPACE
 70
     0
 10
0.0
 20
0.0
 30
0.0
  3
*PAPER_SPACE
  1

  0
ENDBLK
  5
1D
330
1B
100
AcDbEntity
 67
     1
  8
0
100
AcDbBlockEnd
  0
ENDSEC
  0
SECTION
  2
ENTITIES
  0
CIRCLE
  5
40
330
1F
100
AcDbEntity
  8
APPARENT
100
AcDbCircle
 10
46.2340087890625
 20
1053.971801757812
 30
0.0
 40
3.0
  0
LINE
  5
41
330
1F
100
AcDbEntity
  8
APPARENT
100
AcDbLine
 10
38.7340087890625
 20
1153.971801757812
 30
0.0
 11
38.7340087890625
 21
1168.971801757812
 31
0.0
  0
ARC
  5
42
330
1F
100
AcDbEntity
  8
APPARENT
100
AcDbCircle
 10
58.73400878906252
 20
993.9718017578125
 30
0.0
 40
10.0
100
AcDbArc
 50
270.0
 51
0.0
  0
LINE
  5
43
330
1F
100
AcDbEntity
  8
APPARENT
100
AcDbLine
 10
58.73400878906252
 20
983.9718017578125
 30
0.0
 11
33.73400878906247
 21
983.9718017578125
 31
0.0
  0
LINE
  5
44
330
1F
100
AcDbEntity
  8
APPARENT
100
AcDbLine
 10
38.7340087890625
 20
1138.971801757812
 30
0.0
 11
23.73400878906243
 21
1138.971801757812
 31
0.0
  0
ARC
  5
45
330
1F
100
AcDbEntity
  8
APPARENT
100
AcDbCircle
 10
33.73400878906248
 20
993.9718017578125
 30
0.0
 40
10.0
100
AcDbArc
 50
180.0
 51
270.0
  0
LINE
  5
46
330
1F
100
AcDbEntity
  8
APPARENT
100
AcDbLine
 10
23.73400878906247
 20
993.9718017578125
 30
0.0
 11
23.73400878906328
 21
1123.971801757812
 31
0.0
  0
LINE
  5
47
330
1F
100
AcDbEntity
  8
APPARENT
100
AcDbLine
 10
38.7340087890625
 20
1013.971801757812
 30
0.0
 11
38.7340087890625
 21
998.9718017578125
 31
0.0
  0
LINE
  5
48
330
1F
100
AcDbEntity
  8
APPARENT
100
AcDbLine
 10
38.7340087890625
 20
1123.971801757812
 30
0.0
 11
38.7340087890625
 21
1138.971801757812
 31
0.0
  0
CIRCLE
  5
49
330
1F
100
AcDbEntity
  8
APPARENT
100
AcDbCircle
 10
46.2340087890625
 20
1113.971801757812
 30
0.0
 40
3.0
  0
LINE
  5
4A
330
1F
100
AcDbEntity
  8
APPARENT
100
AcDbLine
 10
68.7340087890625
 20
1173.971801757812
 30
0.0
 11
68.73400878906253
 21
993.9718017578125
 31
0.0
  0
LINE
  5
4B
330
1F
100
AcDbEntity
  8
APPARENT
100
AcDbLine
 10
38.7340087890625
 20
1168.971801757812
 30
0.0
 11
23.73400878906249
 21
1168.971801757812
 31
0.0
  0
ARC
  5
4C
330
1F
100
AcDbEntity
  8
APPARENT
100
AcDbCircle
 10
33.73400878906249
 20
1173.971801757812
 30
0.0
 40
10.0
100
AcDbArc
 50
90.0
 51
180.0
  0
LINE
  5
4D
330
1F
100
AcDbEntity
  8
APPARENT
100
AcDbLine
 10
23.73400878906249
 20
1123.971801757812
 30
0.0
 11
38.7340087890625
 21
1123.971801757812
 31
0.0
  0
LINE
  5
4E
330
1F
100
AcDbEntity
  8
APPARENT
100
AcDbLine
 10
38.7340087890625
 20
998.9718017578125
 30
0.0
 11
53.7340087890625
 21
998.9718017578125
 31
0.0
  0
LINE
  5
4F
330
1F
100
AcDbEntity
  8
APPARENT
100
AcDbLine
 10
23.73400878906249
 20
1168.971801757812
 30
0.0
 11
23.73400878906249
 21
1173.971801757812
 31
0.0
  0
LINE
  5
50
330
1F
100
AcDbEntity
  8
APPARENT
100
AcDbLine
 10
53.7340087890625
 20
1013.971801757812
 30
0.0
 11
38.7340087890625
 21
1013.971801757812
 31
0.0
  0
LINE
  5
51
330
1F
100
AcDbEntity
  8
APPARENT
100
AcDbLine
 10
23.73400878906243
 20
1138.971801757812
 30
0.0
 11
23.73400878906249
 21
1153.971801757812
 31
0.0
  0
LINE
  5
52
330
1F
100
AcDbEntity
  8
APPARENT
100
AcDbLine
 10
33.73400878906249
 20
1183.971801757812
 30
0.0
 11
58.73400878906251
 21
1183.971801757812
 31
0.0
  0
LINE
  5
53
330
1F
100
AcDbEntity
  8
APPARENT
100
AcDbLine
 10
53.7340087890625
 20
998.9718017578125
 30
0.0
 11
53.7340087890625
 21
1013.971801757812
 31
0.0
  0
ARC
  5
54
330
1F
100
AcDbEntity
  8
APPARENT
100
AcDbCircle
 10
58.73400878906251
 20
1173.971801757812
 30
0.0
 40
9.999999999999986
100
AcDbArc
 50
0.0
 51
90.0
  0
LINE
  5
55
330
1F
100
AcDbEntity
  8
APPARENT
100
AcDbLine
 10
23.73400878906249
 20
1153.971801757812
 30
0.0
 11
38.7340087890625
 21
1153.971801757812
 31
0.0
  0
CIRCLE
  5
56
330
1F
100
AcDbEntity
  8
APPARENT
100
AcDbCircle
 10
99.74573516845703
 20
1054.9814453125
 30
0.0
 40
3.0
  0
LINE
  5
57
330
1F
100
AcDbEntity
  8
APPARENT
100
AcDbLine
 10
92.24573516845703
 20
1154.9814453125
 30
0.0
 11
92.24573516845703
 21
1169.9814453125
 31
0.0
  0
ARC
  5
58
330
1F
100
AcDbEntity
  8
APPARENT
100
AcDbCircle
 10
112.2457351684571
 20
994.9814453125
 30
0.0
 40
10.0
100
AcDbArc
 50
270.0
 51
0.0
  0
LINE
  5
59
330
1F
100
AcDbEntity
  8
APPARENT
100
AcDbLine
 10
112.245735168457
 20
984.9814453125
 30
0.0
 11
87.245735168457
 21
984.9814453125
 31
0.0
  0
LINE
  5
5A
330
1F
100
AcDbEntity
  8
APPARENT
100
AcDbLine
 10
92.24573516845703
 20
1139.9814453125
 30
0.0
 11
77.24573516845696
 21
1139.9814453125
 31
0.0
  0
ARC
  5
5B
330
1F
100
AcDbEntity
  8
APPARENT
100
AcDbCircle
 10
87.245735168457
 20
994.9814453125
 30
0.0
 40
10.0
100
AcDbArc
 50
180.0
 51
270.0
  0
LINE
  5
5C
330
1F
100
AcDbEntity
  8
APPARENT
100
AcDbLine
 10
77.245735168457
 20
994.9814453125
 30
0.0
 11
77.24573516845781
 21
1124.9814453125
 31
0.0
  0
LINE
  5
5D
330
1F
100
AcDbEntity
  8
APPARENT
100
AcDbLine
 10
92.24573516845703
 20
1014.9814453125
 30
0.0
 11
92.24573516845703
 21
999.9814453125
 31
0.0
  0
LINE
  5
5E
330
1F
100
AcDbEntity
  8
APPARENT
100
AcDbLine
 10
92.24573516845703
 20
1124.9814453125
 30
0.0
 11
92.24573516845703
 21
1139.9814453125
 31
0.0
  0
CIRCLE
  5
5F
330
1F
100
AcDbEntity
  8
APPARENT
100
AcDbCircle
 10
99.74573516845703
 20
1114.9814453125
 30
0.0
 40
3.0
  0
LINE
  5
60
330
1F
100
AcDbEntity
  8
APPARENT
100
AcDbLine
 10
122.245735168457
 20
1174.9814453125
 30
0.0
 11
122.2457351684571
 21
994.9814453125
 31
0.0
  0
LINE
  5
61
330
1F
100
AcDbEntity
  8
APPARENT
100
AcDbLine
 10
92.24573516845703
 20
1169.9814453125
 30
0.0
 11
77.24573516845702
 21
1169.9814453125
 31
0.0
  0
ARC
  5
62
330
1F
100
AcDbEntity
  8
APPARENT
100
AcDbCircle
 10
87.24573516845702
 20
1174.9814453125
 30
0.0
 40
10.0
100
AcDbArc
 50
90.0
 51
180.0
  0
LINE
  5
63
330
1F
100
AcDbEntity
  8
APPARENT
100
AcDbLine
 10
77.24573516845702
 20
1124.9814453125
 30
0.0
 11
92.24573516845703
 21
1124.9814453125
 31
0.0
  0
LINE
  5
64
330
1F
100
AcDbEntity
  8
APPARENT
100
AcDbLine
 10
92.24573516845703
 20
999.9814453125
 30
0.0
 11
107.245735168457
 21
999.9814453125
 31
0.0
  0
LINE
  5
65
330
1F
100
AcDbEntity
  8
APPARENT
100
AcDbLine
 10
77.24573516845702
 20
1169.9814453125
 30
0.0
 11
77.24573516845703
 21
1174.9814453125
 31
0.0
  0
LINE
  5
66
330
1F
100
AcDbEntity
  8
APPARENT
100
AcDbLine
 10
107.245735168457
 20
1014.9814453125
 30
0.0
 11
92.24573516845703
 21
1014.9814453125
 31
0.0
  0
LINE
  5
67
330
1F
100
AcDbEntity
  8
APPARENT
100
AcDbLine
 10
77.24573516845696
 20
1139.9814453125
 30
0.0
 11
77.24573516845702
 21
1154.9814453125
 31
0.0
  0
LINE
  5
68
330
1F
100
AcDbEntity
  8
APPARENT
100
AcDbLine
 10
87.24573516845702
 20
1184.9814453125
 30
0.0
 11
112.245735168457
 21
1184.9814453125
 31
0.0
  0
LINE
  5
69
330
1F
100
AcDbEntity
  8
APPARENT
100
AcDbLine
 10
107.245735168457
 20
999.9814453125
 30
0.0
 11
107.245735168457
 21
1014.9814453125
 31
0.0
  0
ARC
  5
6A
330
1F
100
AcDbEntity
  8
APPARENT
100
AcDbCircle
 10
112.245735168457
 20
1174.9814453125
 30
0.0
 40
9.999999999999986
100
AcDbArc
 50
0.0
 51
90.0
  0
LINE
  5
6B
330
1F
100
AcDbEntity
  8
APPARENT
100
AcDbLine
 10
77.24573516845702
 20
1154.9814453125
 30
0.0
 11
92.24573516845703
 21
1154.9814453125
 31
0.0
  0
LINE
  5
6C
330
1F
100
AcDbEntity
  8
APPARENT
100
AcDbLine
 10
36.69213867187498
 20
973.3681640625
 30
0.0
 11
42.62094332517594
 21
971.9396040091892
 31
0.0
  0
LINE
  5
6D
330
1F
100
AcDbEntity
  8
APPARENT
100
AcDbLine
 10
21.69213867187499
 20
923.3681640625001
 30
0.0
 11
21.69213867187498
 21
938.3681640625001
 31
0.0
  0
LINE
  5
6E
330
1F
100
AcDbEntity
  8
APPARENT
100
AcDbLine
 10
36.69213867187495
 20
968.3681640625
 30
0.0
 11
36.69213867187498
 21
973.3681640625
 31
0.0
  0
ARC
  5
6F
330
1F
100
AcDbEntity
  8
APPARENT
100
AcDbCircle
 10
161.692138671875
 20
815.52341170061
 30
0.0
 40
10.0
100
AcDbArc
 50
0.0
 51
31.75948008481296
  0
LINE
  5
70
330
1F
100
AcDbEntity
  8
APPARENT
100
AcDbLine
 10
111.692138671875
 20
798.3681640625
 30
0.0
 11
126.692138671875
 21
798.3681640625
 31
0.0
  0
LINE
  5
71
330
1F
100
AcDbEntity
  8
APPARENT
100
AcDbLine
 10
171.692138671875
 20
798.3681640625
 30
0.0
 11
171.692138671875
 21
793.3681640625
 31
0.0
  0
CIRCLE
  5
72
330
1F
100
AcDbEntity
  8
APPARENT
100
AcDbCircle
 10
131.8833147289176
 20
834.2131873549697
 30
0.0
 40
3.000000000000028
  0
CIRCLE
  5
73
330
1F
100
AcDbEntity
  8
APPARENT
100
AcDbCircle
 10
82.53409491137917
 20
913.931157829455
 30
0.0
 40
3.0
  0
ARC
  5
74
330
1F
100
AcDbEntity
  8
APPARENT
100
AcDbCircle
 10
161.692138671875
 20
793.3681640625
 30
0.0
 40
10.0
100
AcDbArc
 50
270.0
 51
0.0
  0
LINE
  5
75
330
1F
100
AcDbEntity
  8
APPARENT
100
AcDbLine
 10
21.69213867187498
 20
953.3681640625
 30
0.0
 11
21.69213867187498
 21
968.3681640625
 31
0.0
  0
LINE
  5
76
330
1F
100
AcDbEntity
  8
APPARENT
100
AcDbLine
 10
104.2226195015431
 20
927.3573873376516
 30
0.0
 11
170.1947901387536
 21
820.786957846773
 31
0.0
  0
LINE
  5
77
330
1F
100
AcDbEntity
  8
APPARENT
100
AcDbLine
 10
126.692138671875
 20
798.3681640625
 30
0.0
 11
126.692138671875
 21
813.3681640625
 31
0.0
  0
CIRCLE
  5
78
330
1F
100
AcDbEntity
  8
APPARENT
100
AcDbCircle
 10
107.2087048201483
 20
874.0721725922123
 30
0.0
 40
3.0
  0
LINE
  5
79
330
1F
100
AcDbEntity
  8
APPARENT
100
AcDbLine
 10
41.12157768594311
 20
923.3681640625
 30
0.0
 11
21.69213867187499
 21
923.3681640625
 31
0.0
  0
LINE
  5
7A
330
1F
100
AcDbEntity
  8
APPARENT
100
AcDbLine
 10
111.692138671875
 20
813.3681640625
 30
0.0
 11
111.692138671875
 21
815.52341170061
 31
0.0
  0
ARC
  5
7B
330
1F
100
AcDbEntity
  8
APPARENT
100
AcDbCircle
 10
19.19610483275689
 20
874.721925876022
 30
0.0
 40
100.0
100
AcDbArc
 50
31.75948008481282
 51
76.45267820987128
  0
ARC
  5
7C
330
1F
100
AcDbEntity
  8
APPARENT
100
AcDbCircle
 10
121.692138671875
 20
793.3681640625
 30
0.0
 40
10.0
100
AcDbArc
 50
180.0
 51
270.0
  0
LINE
  5
7D
330
1F
100
AcDbEntity
  8
APPARENT
100
AcDbLine
 10
36.69213867187497
 20
938.3681640625001
 30
0.0
 11
36.69213867187498
 21
953.3681640625001
 31
0.0
  0
LINE
  5
7E
330
1F
100
AcDbEntity
  8
APPARENT
100
AcDbLine
 10
36.69213867187498
 20
953.3681640625001
 30
0.0
 11
21.69213867187498
 21
953.3681640625
 31
0.0
  0
LINE
  5
7F
330
1F
100
AcDbEntity
  8
APPARENT
100
AcDbLine
 10
111.692138671875
 20
793.3681640625
 30
0.0
 11
111.692138671875
 21
798.3681640625
 31
0.0
  0
LINE
  5
80
330
1F
100
AcDbEntity
  8
APPARENT
100
AcDbLine
 10
171.692138671875
 20
813.3681640625
 30
0.0
 11
156.692138671875
 21
813.3681640625
 31
0.0
  0
LINE
  5
81
330
1F
100
AcDbEntity
  8
APPARENT
100
AcDbLine
 10
171.692138671875
 20
815.52341170061
 30
0.0
 11
171.692138671875
 21
813.3681640625
 31
0.0
  0
LINE
  5
82
330
1F
100
AcDbEntity
  8
APPARENT
100
AcDbLine
 10
110.1947901387536
 20
820.786957846773
 30
0.0
 11
49.62422915282173
 21
918.631710208663
 31
0.0
  0
LINE
  5
83
330
1F
100
AcDbEntity
  8
APPARENT
100
AcDbLine
 10
21.69213867187498
 20
968.3681640625
 30
0.0
 11
36.69213867187495
 21
968.3681640625
 31
0.0
  0
LINE
  5
84
330
1F
100
AcDbEntity
  8
APPARENT
100
AcDbLine
 10
156.692138671875
 20
798.3681640625
 30
0.0
 11
171.692138671875
 21
798.3681640625
 31
0.0
  0
ARC
  5
85
330
1F
100
AcDbEntity
  8
APPARENT
100
AcDbCircle
 10
101.692138671875
 20
815.52341170061
 30
0.0
 40
10.00000000000003
100
AcDbArc
 50
0.0
 51
31.75948008481284
  0
ARC
  5
86
330
1F
100
AcDbEntity
  8
APPARENT
100
AcDbCircle
 10
41.12157768594312
 20
913.3681640625
 30
0.0
 40
10.00000000000001
100
AcDbArc
 50
31.75948008481295
 51
90.00000000000004
  0
LINE
  5
87
330
1F
100
AcDbEntity
  8
APPARENT
100
AcDbLine
 10
156.692138671875
 20
813.3681640625
 30
0.0
 11
156.692138671875
 21
798.3681640625
 31
0.0
  0
LINE
  5
88
330
1F
100
AcDbEntity
  8
APPARENT
100
AcDbLine
 10
126.692138671875
 20
813.3681640625
 30
0.0
 11
111.692138671875
 21
813.3681640625
 31
0.0
  0
LINE
  5
89
330
1F
100
AcDbEntity
  8
APPARENT
100
AcDbLine
 10
21.69213867187498
 20
938.3681640625001
 30
0.0
 11
36.69213867187497
 21
938.3681640625001
 31
0.0
  0
LINE
  5
8A
330
1F
100
AcDbEntity
  8
APPARENT
100
AcDbLine
 10
161.692138671875
 20
783.3681640625
 30
0.0
 11
121.692138671875
 21
783.3681640625
 31
0.0
  0
LINE
  5
8B
330
1F
100
AcDbEntity
  8
APPARENT
100
AcDbLine
 10
154.656494140625
 20
663.267822265625
 30
0.0
 11
148.7276894873241
 21
664.6963823189358
 31
0.0
  0
LINE
  5
8C
330
1F
100
AcDbEntity
  8
APPARENT
100
AcDbLine
 10
169.656494140625
 20
713.2678222656249
 30
0.0
 11
169.656494140625
 21
698.2678222656249
 31
0.0
  0
LINE
  5
8D
330
1F
100
AcDbEntity
  8
APPARENT
100
AcDbLine
 10
154.6564941406251
 20
668.267822265625
 30
0.0
 11
154.656494140625
 21
663.267822265625
 31
0.0
  0
ARC
  5
8E
330
1F
100
AcDbEntity
  8
APPARENT
100
AcDbCircle
 10
29.65649414062503
 20
821.112574627515
 30
0.0
 40
10.0
100
AcDbArc
 50
180.0
 51
211.759480084813
  0
LINE
  5
8F
330
1F
100
AcDbEntity
  8
APPARENT
100
AcDbLine
 10
79.65649414062501
 20
838.267822265625
 30
0.0
 11
64.65649414062501
 21
838.267822265625
 31
0.0
  0
LINE
  5
90
330
1F
100
AcDbEntity
  8
APPARENT
100
AcDbLine
 10
19.65649414062503
 20
838.267822265625
 30
0.0
 11
19.65649414062503
 21
843.267822265625
 31
0.0
  0
CIRCLE
  5
91
330
1F
100
AcDbEntity
  8
APPARENT
100
AcDbCircle
 10
59.46531808358245
 20
802.4227989731553
 30
0.0
 40
3.0
  0
CIRCLE
  5
92
330
1F
100
AcDbEntity
  8
APPARENT
100
AcDbCircle
 10
108.8145379011208
 20
722.70482849867
 30
0.0
 40
3.0
  0
ARC
  5
93
330
1F
100
AcDbEntity
  8
APPARENT
100
AcDbCircle
 10
29.65649414062503
 20
843.267822265625
 30
0.0
 40
10.0
100
AcDbArc
 50
90.0
 51
180.0
  0
LINE
  5
94
330
1F
100
AcDbEntity
  8
APPARENT
100
AcDbLine
 10
169.656494140625
 20
683.267822265625
 30
0.0
 11
169.656494140625
 21
668.267822265625
 31
0.0
  0
LINE
  5
95
330
1F
100
AcDbEntity
  8
APPARENT
100
AcDbLine
 10
87.12601331095689
 20
709.2785989904734
 30
0.0
 11
21.15384267374637
 21
815.849028481352
 31
0.0
  0
LINE
  5
96
330
1F
100
AcDbEntity
  8
APPARENT
100
AcDbLine
 10
64.65649414062501
 20
838.267822265625
 30
0.0
 11
64.65649414062501
 21
823.267822265625
 31
0.0
  0
CIRCLE
  5
97
330
1F
100
AcDbEntity
  8
APPARENT
100
AcDbCircle
 10
84.13992799235166
 20
762.5638137359127
 30
0.0
 40
3.000000000000014
  0
LINE
  5
98
330
1F
100
AcDbEntity
  8
APPARENT
100
AcDbLine
 10
150.2270551265569
 20
713.267822265625
 30
0.0
 11
169.656494140625
 21
713.267822265625
 31
0.0
  0
LINE
  5
99
330
1F
100
AcDbEntity
  8
APPARENT
100
AcDbLine
 10
79.65649414062501
 20
823.267822265625
 30
0.0
 11
79.656494140625
 21
821.112574627515
 31
0.0
  0
ARC
  5
9A
330
1F
100
AcDbEntity
  8
APPARENT
100
AcDbCircle
 10
172.1525279797431
 20
761.914060452103
 30
0.0
 40
100.0
100
AcDbArc
 50
211.7594800848128
 51
256.4526782098712
  0
ARC
  5
9B
330
1F
100
AcDbEntity
  8
APPARENT
100
AcDbCircle
 10
69.65649414062501
 20
843.267822265625
 30
0.0
 40
10.0
100
AcDbArc
 50
0.0
 51
90.0
  0
LINE
  5
9C
330
1F
100
AcDbEntity
  8
APPARENT
100
AcDbLine
 10
154.656494140625
 20
698.2678222656249
 30
0.0
 11
154.656494140625
 21
683.2678222656249
 31
0.0
  0
LINE
  5
9D
330
1F
100
AcDbEntity
  8
APPARENT
100
AcDbLine
 10
154.656494140625
 20
683.2678222656249
 30
0.0
 11
169.656494140625
 21
683.267822265625
 31
0.0
  0
LINE
  5
9E
330
1F
100
AcDbEntity
  8
APPARENT
100
AcDbLine
 10
79.656494140625
 20
843.267822265625
 30
0.0
 11
79.65649414062501
 21
838.267822265625
 31
0.0
  0
LINE
  5
9F
330
1F
100
AcDbEntity
  8
APPARENT
100
AcDbLine
 10
19.65649414062503
 20
823.267822265625
 30
0.0
 11
34.65649414062503
 21
823.267822265625
 31
0.0
  0
LINE
  5
A0
330
1F
100
AcDbEntity
  8
APPARENT
100
AcDbLine
 10
19.656494140625
 20
821.112574627515
 30
0.0
 11
19.65649414062503
 21
823.267822265625
 31
0.0
  0
LINE
  5
A1
330
1F
100
AcDbEntity
  8
APPARENT
100
AcDbLine
 10
81.15384267374638
 20
815.849028481352
 30
0.0
 11
141.7244036596783
 21
718.004276119462
 31
0.0
  0
LINE
  5
A2
330
1F
100
AcDbEntity
  8
APPARENT
100
AcDbLine
 10
169.656494140625
 20
668.267822265625
 30
0.0
 11
154.6564941406251
 21
668.267822265625
 31
0.0
  0
LINE
  5
A3
330
1F
100
AcDbEntity
  8
APPARENT
100
AcDbLine
 10
34.65649414062503
 20
838.267822265625
 30
0.0
 11
19.65649414062503
 21
838.267822265625
 31
0.0
  0
ARC
  5
A4
330
1F
100
AcDbEntity
  8
APPARENT
100
AcDbCircle
 10
89.65649414062503
 20
821.112574627515
 30
0.0
 40
10.00000000000003
100
AcDbArc
 50
180.0
 51
211.7594800848129
  0
ARC
  5
A5
330
1F
100
AcDbEntity
  8
APPARENT
100
AcDbCircle
 10
150.2270551265569
 20
723.267822265625
 30
0.0
 40
10.0
100
AcDbArc
 50
211.759480084813
 51
270.0
  0
LINE
  5
A6
330
1F
100
AcDbEntity
  8
APPARENT
100
AcDbLine
 10
34.65649414062503
 20
823.267822265625
 30
0.0
 11
34.65649414062503
 21
838.267822265625
 31
0.0
  0
LINE
  5
A7
330
1F
100
AcDbEntity
  8
APPARENT
100
AcDbLine
 10
64.65649414062501
 20
823.267822265625
 30
0.0
 11
79.65649414062501
 21
823.267822265625
 31
0.0
  0
LINE
  5
A8
330
1F
100
AcDbEntity
  8
APPARENT
100
AcDbLine
 10
169.656494140625
 20
698.2678222656249
 30
0.0
 11
154.656494140625
 21
698.2678222656249
 31
0.0
  0
LINE
  5
A9
330
1F
100
AcDbEntity
  8
APPARENT
100
AcDbLine
 10
29.65649414062503
 20
853.267822265625
 30
0.0
 11
69.65649414062501
 21
853.267822265625
 31
0.0
  0
LINE
  5
AA
330
1F
100
AcDbEntity
  8
APPARENT
100
AcDbLine
 10
218.5767059326176
 20
433.4461839199066
 30
0.0
 11
218.5767059326174
 21
448.4461839199066
 31
0.0
  0
LINE
  5
AB
330
1F
100
AcDbEntity
  8
APPARENT
100
AcDbLine
 10
338.5767059326178
 20
1138.446183919907
 30
0.0
 11
338.5767059326178
 21
1153.446183919907
 31
0.0
  0
LINE
  5
AC
330
1F
100
AcDbEntity
  8
APPARENT
100
AcDbLine
 10
353.5767059326184
 20
1138.446183919907
 30
0.0
 11
338.5767059326178
 21
1138.446183919907
 31
0.0
  0
LINE
  5
AD
330
1F
100
AcDbEntity
  8
APPARENT
100
AcDbLine
 10
353.5767059326184
 20
1153.446183919907
 30
0.0
 11
353.5767059326179
 21
1168.446183919907
 31
0.0
  0
LINE
  5
AE
330
1F
100
AcDbEntity
  8
APPARENT
100
AcDbLine
 10
248.5767059326178
 20
1168.446183919907
 30
0.0
 11
218.5767059326178
 21
1168.446183919907
 31
0.0
  0
LINE
  5
AF
330
1F
100
AcDbEntity
  8
APPARENT
100
AcDbLine
 10
338.5767059326175
 20
478.4461839199066
 30
0.0
 11
353.5767059326176
 21
478.4461839199066
 31
0.0
  0
LINE
  5
B0
330
1F
100
AcDbEntity
  8
APPARENT
100
AcDbLine
 10
353.5767059326175
 20
448.4461839199066
 30
0.0
 11
353.5767059326181
 21
463.4461839199066
 31
0.0
  0
LINE
  5
B1
330
1F
100
AcDbEntity
  8
APPARENT
100
AcDbLine
 10
338.5767059326178
 20
1153.446183919907
 30
0.0
 11
353.5767059326184
 21
1153.446183919907
 31
0.0
  0
LINE
  5
B2
330
1F
100
AcDbEntity
  8
APPARENT
100
AcDbLine
 10
338.5767059326175
 20
433.4461839199066
 30
0.0
 11
338.5767059326175
 21
448.4461839199066
 31
0.0
  0
LINE
  5
B3
330
1F
100
AcDbEntity
  8
APPARENT
100
AcDbLine
 10
218.5767059326178
 20
1183.446183919907
 30
0.0
 11
203.5767059326179
 21
1183.446183919907
 31
0.0
  0
LINE
  5
B4
330
1F
100
AcDbEntity
  8
APPARENT
100
AcDbLine
 10
338.5767059326175
 20
463.4461839199066
 30
0.0
 11
338.5767059326175
 21
478.4461839199066
 31
0.0
  0
LINE
  5
B5
330
1F
100
AcDbEntity
  8
APPARENT
100
AcDbLine
 10
203.5767059326179
 20
1183.446183919907
 30
0.0
 11
203.5767059326161
 21
433.4461839199066
 31
0.0
  0
LINE
  5
B6
330
1F
100
AcDbEntity
  8
APPARENT
100
AcDbLine
 10
353.5767059326179
 20
1168.446183919907
 30
0.0
 11
338.5767059326179
 21
1168.446183919907
 31
0.0
  0
LINE
  5
B7
330
1F
100
AcDbEntity
  8
APPARENT
100
AcDbLine
 10
248.5767059326175
 20
433.4461839199066
 30
0.0
 11
338.5767059326175
 21
433.4461839199066
 31
0.0
  0
LINE
  5
B8
330
1F
100
AcDbEntity
  8
APPARENT
100
AcDbLine
 10
218.5767059326178
 20
1168.446183919907
 30
0.0
 11
218.5767059326178
 21
1183.446183919907
 31
0.0
  0
LINE
  5
B9
330
1F
100
AcDbEntity
  8
APPARENT
100
AcDbLine
 10
338.5767059326179
 20
1168.446183919907
 30
0.0
 11
338.5767059326179
 21
1183.446183919907
 31
0.0
  0
LINE
  5
BA
330
1F
100
AcDbEntity
  8
APPARENT
100
AcDbLine
 10
353.5767059326181
 20
463.4461839199066
 30
0.0
 11
338.5767059326175
 21
463.4461839199066
 31
0.0
  0
LINE
  5
BB
330
1F
100
AcDbEntity
  8
APPARENT
100
AcDbLine
 10
248.5767059326175
 20
448.4461839199066
 30
0.0
 11
248.5767059326175
 21
433.4461839199066
 31
0.0
  0
LINE
  5
BC
330
1F
100
AcDbEntity
  8
APPARENT
100
AcDbLine
 10
338.5767059326179
 20
1183.446183919907
 30
0.0
 11
248.5767059326178
 21
1183.446183919907
 31
0.0
  0
LINE
  5
BD
330
1F
100
AcDbEntity
  8
APPARENT
100
AcDbLine
 10
338.5767059326175
 20
448.4461839199066
 30
0.0
 11
353.5767059326175
 21
448.4461839199066
 31
0.0
  0
LINE
  5
BE
330
1F
100
AcDbEntity
  8
APPARENT
100
AcDbLine
 10
218.5767059326174
 20
448.4461839199066
 30
0.0
 11
248.5767059326175
 21
448.4461839199066
 31
0.0
  0
LINE
  5
BF
330
1F
100
AcDbEntity
  8
APPARENT
100
AcDbLine
 10
248.5767059326178
 20
1183.446183919907
 30
0.0
 11
248.5767059326178
 21
1168.446183919907
 31
0.0
  0
LINE
  5
C0
330
1F
100
AcDbEntity
  8
APPARENT
100
AcDbLine
 10
353.5767059326176
 20
478.4461839199066
 30
0.0
 11
353.5767059326184
 21
1138.446183919907
 31
0.0
  0
LINE
  5
C1
330
1F
100
AcDbEntity
  8
APPARENT
100
AcDbLine
 10
203.5767059326176
 20
433.4461839199066
 30
0.0
 11
218.5767059326176
 21
433.4461839199066
 31
0.0
  0
ENDSEC
  0
SECTION
  2
OBJECTS
  0
DICTIONARY
  5
C
330
0
100
AcDbDictionary
  3
ACAD_GROUP
350
D
  3
ACAD_LAYOUT
350
1A
  3
ACAD_MATERIAL
350
3B
  3
ACAD_MLEADERSTYLE
350
E4
  3
ACAD_MLINESTYLE
350
17
  3
ACAD_PLOTSETTINGS
350
19
  3
ACAD_VISUALSTYLE
350
2A
  3
ACDBHEADERROUNDTRIPXREC
350
C2
  3
ACDBVARIABLEDICTIONARY
350
E2
  0
DICTIONARY
  5
D
102
{ACAD_REACTORS
330
C
102
}
330
C
100
AcDbDictionary
  0
DICTIONARY
  5
1A
102
{ACAD_REACTORS
330
C
102
}
330
C
100
AcDbDictionary
  0
DICTIONARY
  5
3B
102
{ACAD_REACTORS
330
C
102
}
330
C
100
AcDbDictionary
  3
BYBLOCK
350
3D
  3
BYLAYER
350
3C
  3
GLOBAL
350
3E
  0
DICTIONARY
  5
E4
102
{ACAD_REACTORS
330
C
102
}
330
C
100
AcDbDictionary
  0
DICTIONARY
  5
17
102
{ACAD_REACTORS
330
C
102
}
330
C
100
AcDbDictionary
  3
STANDARD
350
18
  0
DICTIONARY
  5
19
102
{ACAD_REACTORS
330
C
102
}
330
C
100
AcDbDictionary
  0
DICTIONARY
  5
2A
102
{ACAD_REACTORS
330
C
102
}
330
C
100
AcDbDictionary
  3
2DWIREFRAME
350
2F
  3
3D_HIDDEN
350
31
  3
3DWIREFRAME
350
30
  3
BASIC
350
32
  3
BRIGHTEN
350
36
  3
COLORCHANGE
350
3A
  3
CONCEPTUAL
350
34
  3
DIM
350
35
  3
FACEPATTERN
350
39
  3
FLAT
350
2B
  3
FLATWITHEDGES
350
2C
  3
GOURAUD
350
2D
  3
GOURAUDWITHEDGES
350
2E
  3
LINEPATTERN
350
38
  3
REALISTIC
350
33
  3
THICKEN
350
37
  0
DICTIONARY
  5
C2
102
{ACAD_REACTORS
330
C
102
}
330
C
100
AcDbDictionary
  3
CEPSNTYPE
350
CB
  3
DIMSTYLEDATA
350
E1
  3
FINGERPRINTGUID
350
CC
  3
HYPERLINKBASE
350
C5
  3
INSUNITS
350
CA
  3
LAYOUTDICT
350
C7
  3
LWETCUNION
350
C9
  3
PLOTSETDICT
350
C8
  3
PSVPSCALE
350
CE
  3
PUCSBASE
350
D1
  3
PUCSORGBACK
350
D7
  3
PUCSORGBOTTOM
350
D3
  3
PUCSORGFRONT
350
D6
  3
PUCSORGLEFT
350
D4
  3
PUCSORGRIGHT
350
D5
  3
PUCSORGTOP
350
D2
  3
PUCSORTHOREF
350
CF
  3
PUCSORTHOVIEW
350
D0
  3
STYLESHEET
350
C6
  3
TSTACKALIGN
350
C3
  3
TSTACKSIZE
350
C4
  3
UCSBASE
350
DA
  3
UCSORGBACK
350
E0
  3
UCSORGBOTTOM
350
DC
  3
UCSORGFRONT
350
DF
  3
UCSORGLEFT
350
DD
  3
UCSORGRIGHT
350
DE
  3
UCSORGTOP
350
DB
  3
UCSORTHOREF
350
D8
  3
UCSORTHOVIEW
350
D9
  3
VERSIONGUID
350
CD
  0
DICTIONARY
  5
E2
102
{ACAD_REACTORS
330
C
102
}
330
C
100
AcDbDictionary
  3
DIMASSOC
350
E7
  3
HIDETEXT
350
E8
  3
PSOLHEIGHT
350
E6
  3
PSOLWIDTH
350
E5
  0
MATERIAL
  5
3D
102
{ACAD_REACTORS
330
3B
102
}
102
{ACAD_XDICTIONARY
360
EB
102
}
330
3B
100
AcDbMaterial
  1
ByBlock
  0
MATERIAL
  5
3C
102
{ACAD_REACTORS
330
3B
102
}
102
{ACAD_XDICTIONARY
360
E9
102
}
330
3B
100
AcDbMaterial
  1
ByLayer
  0
MATERIAL
  5
3E
102
{ACAD_REACTORS
330
3B
102
}
102
{ACAD_XDICTIONARY
360
ED
102
}
330
3B
100
AcDbMaterial
  1
Global
  0
MLINESTYLE
  5
18
102
{ACAD_REACTORS
330
17
102
}
330
17
100
AcDbMlineStyle
  2
Standard
 70
     0
  3

 62
   256
 51
90.0
 52
90.0
 71
     2
 49
0.5
 62
   256
  6
BYLAYER
 49
-0.5
 62
   256
  6
BYLAYER
  0
ACAD_PROXY_OBJECT
  5
2F
102
{ACAD_REACTORS
330
2A
102
}
330
2A
100
AcDbProxyObject
 90
      499
 91
      501
 93
      436
310
42CC9915DA5C99599C985B595049028333333333333E3BF0000000000000FB0107901411070040501600405405064090741402480A0340
1001
ACAD
1000
AcDbSavedByObjectVersion
1070
     0
  0
ACAD_PROXY_OBJECT
  5
31
102
{ACAD_REACTORS
330
2A
102
}
330
2A
100
AcDbProxyObject
 90
      499
 91
      501
 93
      500
310
424CD108121A5919195B90640502408333333333333E3BF0000000000000FB01079024090700405020000000000001110200405405064090740C02480A0340
1001
ACAD
1000
AcDbSavedByObjectVersion
1070
     0
  0
ACAD_PROXY_OBJECT
  5
30
102
{ACAD_REACTORS
330
2A
102
}
330
2A
100
AcDbProxyObject
 90
      499
 91
      501
 93
      436
310
42CCD915DA5C99599C985B595059028333333333333E3BF0000000000000FB0107901411070040501600405405064090741402480A0340
1001
ACAD
1000
AcDbSavedByObjectVersion
1070
     0
  0
ACAD_PROXY_OBJECT
  5
32
102
{ACAD_REACTORS
330
2A
102
}
330
2A
100
AcDbProxyObject
 90
      499
 91
      501
 93
      388
310
4150985CDA58D07406404333333333333E3BF0000000000000FB0107A41107004050150841D405064090741402480A0350
1001
ACAD
1000
AcDbSavedByObjectVersion
1070
     0
  0
ACAD_PROXY_OBJECT
  5
36
102
{ACAD_REACTORS
330
2A
102
}
330
2A
100
AcDbProxyObject
 90
      499
 91
      501
 93
      428
310
42109C9A59DA1D195B90C409028333333333333E3BF0000000000000FB010790141107004050150841D405064090741402480A029950
1001
ACAD
1000
AcDbSavedByObjectVersion
1070
     0
  0
ACAD_PROXY_OBJECT
  5
3A
102
{ACAD_REACTORS
330
2A
102
}
330
2A
100
AcDbProxyObject
 90
      499
 91
      501
 93
      452
310
42D0DBDB1BDC90DA185B99D95104090240C333333333333E3BF0000000000000FB0108901411070040501508421405064090741402480A0350
1001
ACAD
1000
AcDbSavedByObjectVersion
1070
     0
  0
ACAD_PROXY_OBJECT
  5
34
102
{ACAD_REACTORS
330
2A
102
}
330
2A
100
AcDbProxyObject
 90
      499
 91
      501
 93
      500
310
4290DBDB98D95C1D1D585B10940D028333333333333E3BF0000000000000FB0107902409070040501000000000000111010841D405064090740C02480A0340
1001
ACAD
1000
AcDbSavedByObjectVersion
1070
     0
  0
ACAD_PROXY_OBJECT
  5
35
102
{ACAD_REACTORS
330
2A
102
}
330
2A
100
AcDbProxyObject
 90
      499
 91
      501
 93
      412
310
40D11A5B50B409028333333333333E3BF0000000000000FB010790141107004050150841D405064090741402480A02677FFFFFD0
1001
ACAD
1000
AcDbSavedByObjectVersion
1070
     0
  0
ACAD_PROXY_OBJECT
  5
39
102
{ACAD_REACTORS
330
2A
102
}
330
2A
100
AcDbProxyObject
 90
      499
 91
      501
 93
      444
310
42D19858D95C185D1D195C9B90F409028333333333333E3BF0000000000000FB010790141107004050150841D405064090741402480A0350
1001
ACAD
1000
AcDbSavedByObjectVersion
1070
     0
  0
ACAD_PROXY_OBJECT
  5
2B
102
{ACAD_REACTORS
330
2A
102
}
330
2A
100
AcDbProxyObject
 90
      499
 91
      501
 93
      388
310
41119B185D240901404333333333333E3BF0000000000000F9010740A41107004050150841D405064090741402480A1B50
1001
ACAD
1000
AcDbSavedByObjectVersion
1070
     0
  0
ACAD_PROXY_OBJECT
  5
2C
102
{ACAD_REACTORS
330
2A
102
}
330
2A
100
AcDbProxyObject
 90
      499
 91
      501
 93
      476
310
43519B185D15DA5D1A115919D95CD0140901404333333333333E3BF0000000000000F9010740901411070040501600405405064090741402480A1B50
1001
ACAD
1000
AcDbSavedByObjectVersion
1070
     0
  0
ACAD_PROXY_OBJECT
  5
2D
102
{ACAD_REACTORS
330
2A
102
}
330
2A
100
AcDbProxyObject
 90
      499
 91
      501
 93
      412
310
41D1DBDD5C985D5910240902404333333333333E3BF0000000000000F9010740A411070040501641D405064090741402480A1B50
1001
ACAD
1000
AcDbSavedByObjectVersion
1070
     0
  0
ACAD_PROXY_OBJECT
  5
2E
102
{ACAD_REACTORS
330
2A
102
}
330
2A
100
AcDbProxyObject
 90
      499
 91
      501
 93
      500
310
4411DBDD5C985D5915DA5D1A115919D95CD0340902404333333333333E3BF0000000000000F9010740901411070040501600405405064090741402480A1B50
1001
ACAD
1000
AcDbSavedByObjectVersion
1070
     0
  0
ACAD_PROXY_OBJECT
  5
38
102
{ACAD_REACTORS
330
2A
102
}
330
2A
100
AcDbProxyObject
 90
      499
 91
      501
 93
      444
310
42D31A5B995C185D1D195C9B90E409028333333333333E3BF0000000000000FB010790141107004050750841D405064090741402483A0350
1001
ACAD
1000
AcDbSavedByObjectVersion
1070
     0
  0
ACAD_PROXY_OBJECT
  5
33
102
{ACAD_REACTORS
330
2A
102
}
330
2A
100
AcDbProxyObject
 90
      499
 91
      501
 93
      420
310
425499585B1A5CDD1A58D08409028333333333333E3BF0000000000000FB01079019070040501508421405064090741402480A1B40
1001
ACAD
1000
AcDbSavedByObjectVersion
1070
     0
  0
ACAD_PROXY_OBJECT
  5
37
102
{ACAD_REACTORS
330
2A
102
}
330
2A
100
AcDbProxyObject
 90
      499
 91
      501
 93
      412
310
41D51A1A58DAD95B90D409028333333333333E3BF0000000000000FB010790141107004050150C41D405064090741402480A0350
1001
ACAD
1000
AcDbSavedByObjectVersion
1070
     0
  0
XRECORD
  5
CB
102
{ACAD_REACTORS
330
C2
102
}
330
C2
100
AcDbXrecord
 90
        0
  0
XRECORD
  5
E1
102
{ACAD_REACTORS
330
C2
102
}
330
C2
100
AcDbXrecord
1000
DSTYLE
1002
{
1070
    41
 40
3.0
1070
   340
340
11
1070
   140
 40
1.22550817624347
1002
}
  0
XRECORD
  5
CC
102
{ACAD_REACTORS
330
C2
102
}
330
C2
100
AcDbXrecord
  1
{FAA060BB-8991-4568-A655-0A5BFD3D7AC1}
  0
XRECORD
  5
C5
102
{ACAD_REACTORS
330
C2
102
}
330
C2
100
AcDbXrecord
  1

  0
XRECORD
  5
CA
102
{ACAD_REACTORS
330
C2
102
}
330
C2
100
AcDbXrecord
 90
        4
  0
XRECORD
  5
C7
102
{ACAD_REACTORS
330
C2
102
}
330
C2
100
AcDbXrecord
340
1A
  0
XRECORD
  5
C9
102
{ACAD_REACTORS
330
C2
102
}
330
C2
100
AcDbXrecord
 90
    10781
  0
XRECORD
  5
C8
102
{ACAD_REACTORS
330
C2
102
}
330
C2
100
AcDbXrecord
340
19
  0
XRECORD
  5
CE
102
{ACAD_REACTORS
330
C2
102
}
330
C2
100
AcDbXrecord
 40
0.0
  0
XRECORD
  5
D1
102
{ACAD_REACTORS
330
C2
102
}
330
C2
100
AcDbXrecord
340
0
  0
XRECORD
  5
D7
102
{ACAD_REACTORS
330
C2
102
}
330
C2
100
AcDbXrecord
 10
0.0
 20
0.0
 30
0.0
  0
XRECORD
  5
D3
102
{ACAD_REACTORS
330
C2
102
}
330
C2
100
AcDbXrecord
 10
0.0
 20
0.0
 30
0.0
  0
XRECORD
  5
D6
102
{ACAD_REACTORS
330
C2
102
}
330
C2
100
AcDbXrecord
 10
0.0
 20
0.0
 30
0.0
  0
XRECORD
  5
D4
102
{ACAD_REACTORS
330
C2
102
}
330
C2
100
AcDbXrecord
 10
0.0
 20
0.0
 30
0.0
  0
XRECORD
  5
D5
102
{ACAD_REACTORS
330
C2
102
}
330
C2
100
AcDbXrecord
 10
0.0
 20
0.0
 30
0.0
  0
XRECORD
  5
D2
102
{ACAD_REACTORS
330
C2
102
}
330
C2
100
AcDbXrecord
 10
0.0
 20
0.0
 30
0.0
  0
XRECORD
  5
CF
102
{ACAD_REACTORS
330
C2
102
}
330
C2
100
AcDbXrecord
340
0
  0
XRECORD
  5
D0
102
{ACAD_REACTORS
330
C2
102
}
330
C2
100
AcDbXrecord
 70
     0
  0
XRECORD
  5
C6
102
{ACAD_REACTORS
330
C2
102
}
330
C2
100
AcDbXrecord
  1

  0
XRECORD
  5
C3
102
{ACAD_REACTORS
330
C2
102
}
330
C2
100
AcDbXrecord
 90
        1
  0
XRECORD
  5
C4
102
{ACAD_REACTORS
330
C2
102
}
330
C2
100
AcDbXrecord
 90
       70
  0
XRECORD
  5
DA
102
{ACAD_REACTORS
330
C2
102
}
330
C2
100
AcDbXrecord
340
0
  0
XRECORD
  5
E0
102
{ACAD_REACTORS
330
C2
102
}
330
C2
100
AcDbXrecord
 10
0.0
 20
0.0
 30
0.0
  0
XRECORD
  5
DC
102
{ACAD_REACTORS
330
C2
102
}
330
C2
100
AcDbXrecord
 10
0.0
 20
0.0
 30
0.0
  0
XRECORD
  5
DF
102
{ACAD_REACTORS
330
C2
102
}
330
C2
100
AcDbXrecord
 10
0.0
 20
0.0
 30
0.0
  0
XRECORD
  5
DD
102
{ACAD_REACTORS
330
C2
102
}
330
C2
100
AcDbXrecord
 10
0.0
 20
0.0
 30
0.0
  0
XRECORD
  5
DE
102
{ACAD_REACTORS
330
C2
102
}
330
C2
100
AcDbXrecord
 10
0.0
 20
0.0
 30
0.0
  0
XRECORD
  5
DB
102
{ACAD_REACTORS
330
C2
102
}
330
C2
100
AcDbXrecord
 10
0.0
 20
0.0
 30
0.0
  0
XRECORD
  5
D8
102
{ACAD_REACTORS
330
C2
102
}
330
C2
100
AcDbXrecord
340
0
  0
XRECORD
  5
D9
102
{ACAD_REACTORS
330
C2
102
}
330
C2
100
AcDbXrecord
 70
     0
  0
XRECORD
  5
CD
102
{ACAD_REACTORS
330
C2
102
}
330
C2
100
AcDbXrecord
  1
{FAEB1C32-E019-11D5-929B-00C0DF256EC4}
  0
DICTIONARYVAR
  5
E7
102
{ACAD_REACTORS
330
E2
102
}
330
E2
100
DictionaryVariables
280
     0
  1
2
  0
DICTIONARYVAR
  5
E8
102
{ACAD_REACTORS
330
E2
102
}
330
E2
100
DictionaryVariables
280
     0
  1
1
  0
DICTIONARYVAR
  5
E6
102
{ACAD_REACTORS
330
E2
102
}
330
E2
100
DictionaryVariables
280
     0
  1
80.000000
  0
DICTIONARYVAR
  5
E5
102
{ACAD_REACTORS
330
E2
102
}
330
E2
100
DictionaryVariables
280
     0
  1
5.000000
  0
DICTIONARY
  5
EB
330
3D
100
AcDbDictionary
280
     1
  3
ACAD_XREC_ROUNDTRIP
360
EC
  0
DICTIONARY
  5
E9
330
3C
100
AcDbDictionary
280
     1
  3
ACAD_XREC_ROUNDTRIP
360
EA
  0
DICTIONARY
  5
ED
330
3E
100
AcDbDictionary
280
     1
  3
ACAD_XREC_ROUNDTRIP
360
EE
  0
XRECORD
  5
EC
102
{ACAD_REACTORS
330
EB
102
}
330
EB
100
AcDbXrecord
102
MATERIAL
148
0.0
149
0.0
149
0.0
 93
        0
 94
      127
282
     0
 72
     1
 77
     1
171
     1
175
     1
179
     1
273
     0
  0
XRECORD
  5
EA
102
{ACAD_REACTORS
330
E9
102
}
330
E9
100
AcDbXrecord
102
MATERIAL
148
0.0
149
0.0
149
0.0
 93
        0
 94
      127
282
     0
 72
     1
 77
     1
171
     1
175
     1
179
     1
273
     0
  0
XRECORD
  5
EE
102
{ACAD_REACTORS
330
ED
102
}
330
ED
100
AcDbXrecord
102
MATERIAL
148
0.0
149
0.0
149
0.0
 93
        0
 94
      127
282
     0
 72
     1
 77
     1
171
     1
175
     1
179
     1
273
     0
  0
ENDSEC
  0
EOF
